<?xml version="1.0" encoding="utf-8"?>
<!-- Generator: Adobe Illustrator 18.1.0, SVG Export Plug-In . SVG Version: 6.00 Build 0)  -->
<!DOCTYPE svg PUBLIC "-//W3C//DTD SVG 1.1//EN" "http://www.w3.org/Graphics/SVG/1.1/DTD/svg11.dtd">
<svg version="1.1" xmlns="http://www.w3.org/2000/svg" xmlns:xlink="http://www.w3.org/1999/xlink" x="0px" y="0px"
	 viewBox="0 0 100 100" enable-background="new 0 0 100 100" xml:space="preserve">
<g id="plane" display="none">
	<g display="inline">
		<path fill="#18ADE3" d="M33.7,60l-6.5-3.7l2.3-2.3l7.3,0.4c-1.7,2.7-2.8,4.9-2.9,5L33.7,60z M39.6,65L39,65.3l3.7,6.5l2.3-2.3
			l-0.4-7.3C41.8,63.9,39.7,64.9,39.6,65z M31.4,68.5c0,0,4-2.4,5.2-3.6l2.7-2.7c2.1-2.1-0.3-4.5-2.4-2.4l-2.7,2.7
			c-1.2,1.2-3.5,5.3-3.5,5.3L31.4,68.5z M54,35.2l-22.1-1.5l-4.9,4.9l2.5,0.7c0,0,2.3,0.6,11.6,3.3c1.5,0.4,2.8,1.1,3.9,1.7L54,35.2
			z M63.8,45l-9.1,9.1c0.6,1,1.3,2.4,1.7,3.9c2.7,9.3,3.3,11.6,3.3,11.6l0.7,2.5l4.9-4.9L63.8,45z"/>
		<path fill="#18ADE3" d="M65.8,48.5l0.7-0.7c1.2-0.3,2.7,1.3,2.4,2.4l-0.9,0.9c-0.7,0.7-1.4,1.2-2,1.5L65.8,48.5z M66.6,59.8
			c0.6-0.3,1.2-0.8,1.9-1.4l0.9-0.9c0.3-1.1-1.3-2.7-2.4-2.4l-0.6,0.6L66.6,59.8z M50.5,33.2l0.7-0.7c0.3-1.2-1.3-2.7-2.4-2.4
			L48,30.9c-0.7,0.7-1.2,1.4-1.5,2L50.5,33.2z M43.3,32.7l0.6-0.6c0.3-1.2-1.3-2.7-2.4-2.4l-0.9,0.9c-0.7,0.7-1.2,1.3-1.4,1.9
			L43.3,32.7z M65.2,41.2L52.3,54.1c-3.3,3.3-7.9,6.2-10.8,7.9c0.6-1.5,0.3-2.9-0.6-3.8c-0.9-0.9-2.4-1.3-3.8-0.6
			c1.6-2.9,4.5-7.4,7.9-10.8l12.9-12.9c6.2-6.2,9.9-5.2,10.9-4.8c0.3,0.1,0.5,0.3,0.7,0.5c0.2,0.2,0.4,0.4,0.5,0.7
			C70.4,31.3,71.4,35,65.2,41.2z M66.1,38.3c1.8-2.6,1.7-4.4,1.3-5.4c-0.1-0.4-0.6-1.1-1.3-1.3c-0.8-0.3-2.7-0.6-5.4,1.3l0.4,0.4
			c2.3-1,4.1-0.5,4.6,0c0.5,0.5,1,2.2,0,4.6L66.1,38.3z"/>
	</g>
	
		<rect x="8.9" y="12" display="inline" fill="none" stroke="#18ADE3" stroke-width="2" stroke-miterlimit="10" width="82.2" height="75.9"/>
	
		<rect x="14.2" y="16.9" display="inline" fill="none" stroke="#18ADE3" stroke-width="2" stroke-miterlimit="10" width="71.5" height="66.1"/>
</g>
<g id="tube_x2F_dlr" display="none">
	
		<rect x="8.9" y="12" display="inline" fill="none" stroke="#18ADE3" stroke-width="2" stroke-miterlimit="10" width="82.2" height="75.9"/>
	
		<rect x="14.2" y="16.9" display="inline" fill="none" stroke="#18ADE3" stroke-width="2" stroke-miterlimit="10" width="71.5" height="66.1"/>
	<path display="inline" fill="#18ADE3" d="M74,46h-2.3c-1.9-10.3-11-18.2-21.9-18.2c-10.9,0-20,7.8-21.9,18.2H25v9h3
		c2.2,10,11.1,17.4,21.7,17.4c10.6,0,19.5-7.4,21.7-17.4H74V46z M49.8,35.5c6.6,0,12.3,4.5,14,10.5H35.7
		C37.5,39.9,43.1,35.5,49.8,35.5z M49.8,64.8C43.4,64.8,38,61,36,55h27.6C61.6,61,56.1,64.8,49.8,64.8z"/>
</g>
<g id="rail" display="none">
	
		<rect x="8.9" y="12" display="inline" fill="none" stroke="#18ADE3" stroke-width="2" stroke-miterlimit="10" width="82.2" height="75.9"/>
	
		<rect x="14.2" y="16.9" display="inline" fill="none" stroke="#18ADE3" stroke-width="2" stroke-miterlimit="10" width="71.5" height="66.1"/>
	<path display="inline" fill="#18ADE3" d="M42.4,28.5h-1.8c0-2,1.7-3.7,3.7-3.7h10.1c2,0,3.7,1.7,3.7,3.7h-1.8c0-1-0.8-1.9-1.9-1.9
		h0L52.9,30c-0.7,0-1.3,0-2-0.1l1.4-3.4h-6l1.4,3.4c-0.7,0-1.3,0-2,0.1l-1.4-3.4h0C43.2,26.6,42.4,27.4,42.4,28.5z M64.7,54.6
		c0-4.3-0.3-9-1-13c-0.7-3.8-1.6-7-3.3-8.5c-1.9-1.7-19.9-1.8-22.2,0c-1.7,1.4-2.6,4.7-3.3,8.5c-0.8,4-1.1,8.7-1,13
		c0,3.5,0.1,6.8,0.4,9.3h30.1C64.6,61.4,64.7,58.1,64.7,54.6z M40.2,36c0.8-0.3,4.3-0.7,9-0.7c4.2,0,8,0.4,9.1,0.7
		c0.3,0.4,0.8,1.3,1.3,3.3H39C39.5,37.1,39.9,36.3,40.2,36z M37.8,62.1c-1,0-1.8-0.8-1.8-1.8c0-1,0.8-1.8,1.8-1.8
		c1,0,1.8,0.8,1.8,1.8C39.5,61.3,38.7,62.1,37.8,62.1z M49.3,58.1c-5.4,0-9.7-6.9-10.4-17.1h20.8C58.9,51.2,54.6,58.1,49.3,58.1z
		 M60.8,62.1c-1,0-1.8-0.8-1.8-1.8c0-1,0.8-1.8,1.8-1.8c1,0,1.7,0.8,1.7,1.8C62.5,61.3,61.7,62.1,60.8,62.1z M34.4,65.8
		c0.2,1.9,0.3,3.2,0.4,3.8h28.8c0.2-0.5,0.2-1.5,0.4-3.8H34.4z M55.3,71.4l0.9,3h2.5l-0.9-3H55.3z M40.7,71.4l-0.9,3h2.5l0.9-3H40.7
		z"/>
</g>
<g id="car_x2F_parking">
	<rect x="8.9" y="12" fill="none" stroke="#18ADE3" stroke-width="2" stroke-miterlimit="10" width="82.2" height="75.9"/>
	<rect x="14.2" y="16.9" fill="none" stroke="#18ADE3" stroke-width="2" stroke-miterlimit="10" width="71.5" height="66.1"/>
	<g>
		<path fill="#18ADE3" d="M43.7,55.7v14.4h-8V30.3h15.9c4.6,0,8.2,1.2,10.8,3.5c2.6,2.3,3.9,5.4,3.9,9.2c0,3.8-1.3,6.9-3.9,9.2
			c-2.6,2.3-6.2,3.5-10.8,3.5H43.7z M43.7,49.5h7.9c2.2,0,3.9-0.6,5.1-1.8c1.1-1.2,1.7-2.8,1.7-4.6c0-1.9-0.6-3.5-1.7-4.7
			c-1.1-1.2-2.8-1.9-5.1-1.9h-7.9V49.5z"/>
	</g>
</g>
<g id="cable_car" display="none">
	
		<rect x="8.9" y="12" display="inline" fill="none" stroke="#18ADE3" stroke-width="2" stroke-miterlimit="10" width="82.2" height="75.9"/>
	
		<rect x="14.2" y="16.9" display="inline" fill="none" stroke="#18ADE3" stroke-width="2" stroke-miterlimit="10" width="71.5" height="66.1"/>
	<path display="inline" fill="#18ADE3" d="M58.8,48.8l-0.3-0.2H40.2l-0.3,0.2c-4,3-6.4,7.8-6.4,12.8c0,5,2.4,9.8,6.4,12.8l0.3,0.2
		h18.3l0.3-0.2c4-3,6.4-7.8,6.4-12.8C65.2,56.5,62.8,51.8,58.8,48.8z M54.7,62.3H35.9c0-0.3,0-0.5,0-0.8c0-4.2,1.9-8,5.1-10.5h10.8
		c1.8,2.6,2.9,6.5,2.9,10.5C54.8,61.8,54.8,62.1,54.7,62.3z M62.7,62.3h-5.5c0-0.3,0-0.5,0-0.8c0-4-0.9-7.7-2.5-10.5h2.9
		c3.3,2.6,5.1,6.4,5.1,10.5C62.7,61.8,62.7,62.1,62.7,62.3z M36.7,36.7l-0.4-1.6l29.3-6.6l0.4,1.6L36.7,36.7z M54,42.7l-2.2,1.7h6.7
		v2.5H40.2v-2.5h7.5l4.6-3.6c1-1,1.5-2.4,1.5-4.6v-1.7l2.5-0.6v2.2C56.3,39.1,55.6,41.1,54,42.7L54,42.7z M44.8,30.1
		c-0.2-0.9,0.4-1.8,1.2-2c0.9-0.2,1.8,0.4,2,1.2c0.2,0.9-0.4,1.8-1.2,2C45.9,31.5,45,31,44.8,30.1z M49.6,29c-0.2-0.9,0.4-1.8,1.2-2
		c0.9-0.2,1.8,0.4,2,1.2c0.2,0.9-0.4,1.8-1.2,2C50.7,30.5,49.8,29.9,49.6,29z M54.4,27.9c-0.2-0.9,0.4-1.8,1.2-2
		c0.9-0.2,1.8,0.4,2,1.2c0.2,0.9-0.4,1.8-1.2,2C55.5,29.4,54.6,28.8,54.4,27.9z M59.2,26.9c-0.2-0.9,0.4-1.8,1.2-2
		c0.9-0.2,1.8,0.4,2,1.2c0.2,0.9-0.4,1.8-1.2,2C60.3,28.3,59.4,27.7,59.2,26.9z"/>
</g>
<g id="boat" display="none">
	
		<rect x="8.9" y="12" display="inline" fill="none" stroke="#18ADE3" stroke-width="2" stroke-miterlimit="10" width="82.2" height="75.9"/>
	
		<rect x="14.2" y="16.9" display="inline" fill="none" stroke="#18ADE3" stroke-width="2" stroke-miterlimit="10" width="71.5" height="66.1"/>
	<g display="inline">
		<path fill="#18ADE3" d="M65.9,69.7c-1,0.8-2.2,1.1-3.6,1.1c-1.3,0-2.7-0.4-3.9-1.1c0.8-0.4,1.6-1,2.5-1.7c1.3,0.4,2.7,0.2,3.4-0.4
			c0.6-0.4,1.3-0.3,1.8,0.2C66.5,68.5,66.5,69.2,65.9,69.7z M42.4,44.8c0.5,0,1-0.2,1.3-0.5H55c0.3,0.3,0.8,0.5,1.3,0.5
			c1.1,0,1.9-0.9,1.9-1.9c0-1.1-0.9-1.9-1.9-1.9c-0.5,0-1,0.2-1.3,0.5h-3.9v-2.8c1.8-0.7,3.1-2.5,3.1-4.5c0-1.3-0.5-2.4-1.3-3.3
			c-0.7,0.4-1.2,1-1.2,1.8c0.3,0.4,0.4,0.9,0.4,1.5c0,0.9-0.4,1.6-1,2.1v-0.2c0-1-0.8-1.8-1.8-1.8c-1,0-1.8,0.8-1.8,1.8v0.2
			c-0.6-0.5-1-1.3-1-2.1c0-1,0.6-1.9,1.4-2.4c0,0.6,0.4,1.2,1,1.3c0.1,0,0.2,0,0.3,0c0,0,0,0,0,0c0.6,0,1.1-0.4,1.3-1
			c0.1-0.5,0.3-0.9,0.6-1.3c0,0,0,0,0,0c0,0,0,0,0,0c0.1-0.1,0.1-0.2,0.2-0.2c0,0,0.1-0.1,0.1-0.1c0.1-0.1,0.2-0.2,0.4-0.3l0,0
			c0.3-0.2,0.6-0.4,1-0.6c0.2-0.1,0.3-0.1,0.5-0.2c1.8-0.5,4.4-0.3,6.2,1.4c2,1.9,2.4,5.1,1.2,9.3l-0.8,2.9c-1.4,5-2.7,9.3-4,13.6
			c-0.8,2.4-1,4.4-1,6c0.1,0,0.2,0,0.3,0h0c0.7,0,1.4-0.2,2.2-0.6c0-1.4,0.3-3,0.9-4.7c1.4-4.4,2.6-8.7,4.1-13.7l0.8-2.9
			c1.9-6.8-0.3-10.3-1.8-11.8c-1.7-1.6-4-2.5-6.4-2.4c-2.4,0-4.7,1.1-5.9,2.8c-2.5,0.2-4.6,2.3-4.6,4.9c0,2.1,1.3,3.8,3.1,4.5v2.8
			h-3.9c-0.3-0.3-0.8-0.5-1.3-0.5c-1.1,0-1.9,0.9-1.9,1.9C40.5,44,41.3,44.8,42.4,44.8z"/>
		<path fill="#18ADE3" d="M63.3,51.1c0,0,4,7.7,2.1,7.7c-1.9,0-2.2,0-4.2,0C59.2,58.8,63.3,51.1,63.3,51.1z M35.2,51.1
			c0,0-4.1,7.7-2.1,7.7c2,0,2.3,0,4.2,0C39.2,58.8,35.2,51.1,35.2,51.1z M62.9,63.3c0.6-0.8,1.1-1.7,1.6-2.7h-3
			c-0.2,0.3-0.4,0.6-0.6,0.9c-3.3,3.8-9.3,3.9-9.8-0.7V46.1h-3.5v14.8c-0.5,4.6-6.5,4.5-9.8,0.7c-0.2-0.3-0.4-0.6-0.6-1h-3
			c1.9,4.2,5.6,7.4,10,8.9c4.3,1.9,5.1,3.7,5.1,3.7s0.8-1.9,5.1-3.7c2.1-0.7,4.1-1.8,5.7-3.2C61.2,65.5,62.2,64.4,62.9,63.3z"/>
	</g>
</g>
</svg>
